<svg width="16" height="14" viewBox="0 0 16 14" fill="none" xmlns="http://www.w3.org/2000/svg">
<path d="M14.7891 6.89065L8.35311 0.459399C8.30677 0.412967 8.25173 0.376131 8.19114 0.350997C8.13054 0.325864 8.06559 0.312927 7.99999 0.312927C7.93439 0.312927 7.86943 0.325864 7.80884 0.350997C7.74825 0.376131 7.6932 0.412967 7.64686 0.459399L1.21093 6.89065C1.02343 7.07815 0.917176 7.33284 0.917176 7.59846C0.917176 8.15002 1.36561 8.59846 1.91718 8.59846L2.5953 8.59846L2.5953 13.1875C2.5953 13.4641 2.81874 13.6875 3.0953 13.6875L6.99999 13.6875L6.99999 10.1875L8.74999 10.1875L8.74999 13.6875L12.9047 13.6875C13.1812 13.6875 13.4047 13.4641 13.4047 13.1875L13.4047 8.59846L14.0828 8.59846C14.3484 8.59846 14.6031 8.49377 14.7906 8.30471C15.1797 7.91409 15.1797 7.28127 14.7891 6.89065Z" fill="white"/>
</svg>
