<svg id="Perldoc" xmlns="http://www.w3.org/2000/svg" width="55" height="70" viewBox="0 0 55 70">
  <g id="Home" transform="translate(-477 -546)">
    <g id="learning" transform="translate(250 546)">
      <g id="Group-8" transform="translate(227)">
        <rect id="Rectangle-14" width="55" height="70" fill="#61c5ba"/>
        <g id="headphones" transform="translate(2.805 20)">
          <path id="Tracé_101" data-name="Tracé 101" d="M24.6,37.763c5.127,0,8.61,1.669,10.353,4.962a.44.44,0,1,0,.778-.412c-1.907-3.6-5.652-5.431-11.131-5.431-4.809,0-8.3,1.419-10.369,4.217a13.121,13.121,0,0,0-2.121,8.587,21.357,21.357,0,0,0,.757,4.659l.007.022.62,1.7h0l2.767,7.587v0l.046.126a3.618,3.618,0,0,1-2.746-2.266l-.934-2.4a5.248,5.248,0,0,1-.28-2.793.441.441,0,0,0-.017-.217,27.663,27.663,0,0,1-1.154-5.788,20.192,20.192,0,0,1,.157-5.245,11.655,11.655,0,0,1,2.033-5,.44.44,0,1,0-.708-.524,12.52,12.52,0,0,0-2.192,5.368,21.053,21.053,0,0,0-.169,5.47,28.64,28.64,0,0,0,1.164,5.9,6.128,6.128,0,0,0,.345,3.151l.934,2.4a4.525,4.525,0,0,0,4.217,2.885.443.443,0,0,0,.414-.591l-.024-.065,2.431.392A.447.447,0,0,0,20,64.436l1.73-.631a2.2,2.2,0,0,0,1.31-2.815l-1.526-4.184a.44.44,0,1,0-.827.3l1.526,4.184a1.315,1.315,0,0,1-.785,1.686l-1.316.48-3.543-9.715,1.316-.48a1.317,1.317,0,0,1,1.686.785l.511,1.4a.44.44,0,0,0,.827-.3l-.511-1.4a2.2,2.2,0,0,0-2.815-1.31l-1.725.629a.452.452,0,0,0-.188.128l-1.608,1.865-.357-.979a20.976,20.976,0,0,1-.718-4.461c-.119-2.284.123-5.526,1.953-8,1.9-2.56,5.146-3.858,9.659-3.858ZM15.846,54.336l3.331,9.132L17,63.118,14.407,56Z" transform="translate(0 -34.721)" fill="#00456e"/>
          <path id="Tracé_102" data-name="Tracé 102" d="M95.695,10.327a12.677,12.677,0,0,0-2.107-5.355C91.23,1.673,87.176,0,81.539,0h0c-4.68,0-8.286,1.16-10.718,3.448a.44.44,0,0,0,.6.641C73.687,1.96,77.09.881,81.539.881c5.335,0,9.147,1.548,11.33,4.6,2.217,3.1,2.359,7.246,2.088,10.177a27.725,27.725,0,0,1-1.148,5.726.44.44,0,0,0-.017.217,5.247,5.247,0,0,1-.28,2.793l-.934,2.4a3.618,3.618,0,0,1-2.746,2.266l.046-.126v0l2.767-7.587h0l.62-1.7.007-.022c.068-.224,1.656-5.532.129-10.286a.44.44,0,0,0-.838.269c1.411,4.393-.053,9.49-.13,9.749l-.357.979-1.608-1.865a.452.452,0,0,0-.188-.128l-1.724-.629a2.2,2.2,0,0,0-2.815,1.31L83.1,26.269a2.2,2.2,0,0,0,1.31,2.815l1.73.631a.447.447,0,0,0,.221.021l2.431-.392-.024.065A.443.443,0,0,0,89.18,30,4.525,4.525,0,0,0,93.4,27.115l.934-2.4a6.128,6.128,0,0,0,.345-3.151,28.548,28.548,0,0,0,1.156-5.811,21.269,21.269,0,0,0-.138-5.423ZM83.969,27.577a1.306,1.306,0,0,1-.043-1.005l2.642-7.244a1.315,1.315,0,0,1,1.686-.785l1.316.48-3.543,9.715-1.316-.48a1.307,1.307,0,0,1-.742-.68Zm2.991,1.171,3.331-9.132,1.439,1.669L89.136,28.4Z" transform="translate(-56.94)" fill="#00456e"/>
        </g>
      </g>
    </g>
  </g>
</svg>
