<svg width="403" height="278" viewBox="0 0 403 278" fill="none" xmlns="http://www.w3.org/2000/svg">
<path d="M362.432 43H39.9409C35.268 43 31.4967 46.7828 31.4967 51.4529V247.957C31.4967 252.61 35.2666 256.392 39.9409 256.392H362.433C367.108 256.392 370.896 252.61 370.896 247.957V51.4529C370.896 46.7828 367.106 43 362.432 43Z" fill="#174F78"/>
<path d="M349.884 63.3317H52.509V235.614H349.884V63.3317Z" fill="#103754"/>
<path d="M402.176 251.572H263.071C262.78 254.42 260.463 256.661 257.548 256.661H144.848C141.924 256.661 139.607 254.419 139.313 251.572H0.208071C0.125709 252.26 0 252.914 0 253.607V259.698C0 269.787 8.19712 278 18.2987 278H384.1C394.203 278 402.386 269.787 402.386 259.698V253.607C402.386 252.914 402.274 252.26 402.176 251.572Z" fill="white"/>
<path d="M1.46081 266.86C4.25243 273.398 10.746 278 18.2986 278H384.1C391.66 278 398.143 273.398 400.929 266.86H1.46081Z" fill="#C1E2DE"/>
<g clip-path="url(#clip0)">
<path d="M326 352.588C326 353.625 325.155 354.467 324.123 354.467H77.8791C76.8365 354.467 76 353.623 76 352.588V1.87913C76 0.841822 76.8383 0 77.8791 0H324.121C325.153 0 325.998 0.841822 325.998 1.87913V352.588H326Z" fill="white"/>
<path d="M326 20.0241V1.87913C326 0.840061 325.155 0 324.123 0H77.8791C76.8383 0 76 0.841822 76 1.87913V20.0241H326Z" fill="#C5E0EF"/>
<path d="M326 85.2248H76V179.762H326V85.2248Z" fill="#2898CD"/>
<path d="M268.675 114.488H132.832V123.408H268.675V114.488Z" fill="#C5E0EF"/>
<path d="M283.173 132.101H118.336V134.334H283.173V132.101Z" fill="#C5E0EF"/>
<path d="M289.855 140.188H111.649V142.419H289.855V140.188Z" fill="#C5E0EF"/>
<path d="M268.009 148.266H133.494V150.498H268.009V148.266Z" fill="#C5E0EF"/>
<path d="M234.44 39.9918H167.553V55.7962H234.44V39.9918Z" fill="#C5E0EF"/>
<path d="M140.981 64.6124H107.882V66.8438H140.981V64.6124Z" fill="#8FC4D7"/>
<path d="M179.264 64.6124H146.167V66.8438H179.264V64.6124Z" fill="#8FC4D7"/>
<path d="M217.553 64.6124H184.447V66.8438H217.553V64.6124Z" fill="#8FC4D7"/>
<path d="M255.835 64.6124H222.732V66.8438H255.835V64.6124Z" fill="#8FC4D7"/>
<path d="M294.122 64.6124H261.011V66.8438H294.122V64.6124Z" fill="#8FC4D7"/>
<path d="M313.087 137.229L311.464 136.049L314.049 132.495L311.464 128.938L313.087 127.758L316.529 132.495L313.087 137.229Z" fill="white"/>
<path d="M315.289 133.499H306.106V131.492H315.289V133.499Z" fill="white"/>
<path d="M88.9179 137.231L85.4714 132.495L88.9179 127.758L90.5417 128.938L87.9546 132.495L90.5399 136.049L88.9179 137.231Z" fill="white"/>
<path d="M95.8937 133.499H86.7129V131.492H95.8937V133.499Z" fill="white"/>
<path d="M157.548 192.707H96.9857V253.27H157.548V192.707Z" fill="#C5E0EF"/>
<path d="M156.542 193.709V252.265H97.9895V193.709H156.542ZM158.55 191.703H95.9836V254.273H158.55V191.703Z" fill="#8FC4D7"/>
<path d="M97.9913 253.27C97.7342 253.27 97.4771 253.17 97.2816 252.975C96.8888 252.582 96.8888 251.95 97.2816 251.557L155.832 193.006C156.225 192.613 156.859 192.613 157.252 193.006C157.644 193.399 157.644 194.033 157.252 194.426L98.701 252.975C98.5056 253.17 98.2484 253.27 97.9913 253.27Z" fill="#8FC4D7"/>
<path d="M156.542 253.27C156.285 253.27 156.028 253.17 155.832 252.975L97.2816 194.426C96.8888 194.033 96.8888 193.399 97.2816 193.006C97.6743 192.613 98.3083 192.613 98.701 193.006L157.252 251.557C157.644 251.95 157.644 252.582 157.252 252.975C157.056 253.17 156.799 253.27 156.542 253.27Z" fill="#8FC4D7"/>
<path d="M231.283 192.707H170.719V253.27H231.283V192.707Z" fill="#C5E0EF"/>
<path d="M230.279 193.709V252.265H171.725V193.709H230.279ZM232.285 191.703H169.717V254.273H232.285V191.703Z" fill="#8FC4D7"/>
<path d="M171.723 253.27C171.466 253.27 171.209 253.169 171.013 252.974C170.62 252.581 170.62 251.949 171.013 251.556L229.569 193.005C229.962 192.613 230.598 192.613 230.99 193.005C231.383 193.398 231.383 194.032 230.99 194.425L172.433 252.974C172.235 253.169 171.98 253.27 171.723 253.27Z" fill="#8FC4D7"/>
<path d="M230.279 253.27C230.022 253.27 229.765 253.17 229.569 252.975L171.013 194.424C170.62 194.031 170.62 193.397 171.013 193.004C171.406 192.612 172.04 192.612 172.433 193.004L230.99 251.555C231.383 251.948 231.383 252.58 230.99 252.973C230.793 253.17 230.534 253.27 230.279 253.27Z" fill="#8FC4D7"/>
<path d="M305.018 192.707H244.456V253.27H305.018V192.707Z" fill="#C5E0EF"/>
<path d="M304.014 193.709V252.265H245.462V193.709H304.014ZM306.018 191.703H243.454V254.273H306.018V191.703Z" fill="#8FC4D7"/>
<path d="M245.46 253.27C245.203 253.27 244.947 253.17 244.752 252.975C244.359 252.582 244.359 251.95 244.752 251.557L303.306 193.006C303.699 192.613 304.331 192.613 304.724 193.006C305.117 193.399 305.117 194.033 304.724 194.426L246.17 252.975C245.972 253.17 245.717 253.27 245.46 253.27Z" fill="#8FC4D7"/>
<path d="M304.014 253.27C303.757 253.27 303.502 253.17 303.306 252.975L244.752 194.426C244.359 194.033 244.359 193.399 244.752 193.006C245.145 192.613 245.777 192.613 246.17 193.006L304.724 251.557C305.117 251.95 305.117 252.582 304.724 252.975C304.527 253.17 304.271 253.27 304.014 253.27Z" fill="#8FC4D7"/>
<path d="M105.092 13.0377C106.862 13.0377 108.297 11.6027 108.297 9.83246C108.297 8.06224 106.862 6.6272 105.092 6.6272C103.322 6.6272 101.887 8.06224 101.887 9.83246C101.887 11.6027 103.322 13.0377 105.092 13.0377Z" fill="#B1BE46"/>
<path d="M94.6275 13.0342C96.3958 13.0342 97.8293 11.6007 97.8293 9.83242C97.8293 8.06414 96.3958 6.63068 94.6275 6.63068C92.8592 6.63068 91.4258 8.06414 91.4258 9.83242C91.4258 11.6007 92.8592 13.0342 94.6275 13.0342Z" fill="#FFC907"/>
<path d="M84.1646 13.0394C85.9358 13.0394 87.3717 11.6036 87.3717 9.83239C87.3717 8.0612 85.9358 6.62537 84.1646 6.62537C82.3934 6.62537 80.9576 8.0612 80.9576 9.83239C80.9576 11.6036 82.3934 13.0394 84.1646 13.0394Z" fill="#FD6120"/>
</g>
<defs>
<clipPath id="clip0">
<rect width="250" height="236" fill="white" transform="translate(76)"/>
</clipPath>
</defs>
</svg>
