<svg width="14" height="14" viewBox="0 0 14 14" fill="none" xmlns="http://www.w3.org/2000/svg">
<path d="M12.9231 12.9234H6.9999C6.19051 12.9267 5.38919 12.7625 4.64632 12.4412C3.90345 12.1198 3.23508 11.6483 2.68323 11.0562C1.55157 9.85276 0.985734 8.27776 1.08957 6.62109C1.27332 3.65134 3.6504 1.27309 6.62073 1.08876C6.74907 1.08059 6.8774 1.07709 7.00398 1.07709C8.51055 1.07253 9.96114 1.64776 11.0552 2.68359C11.6474 3.23535 12.1191 3.90368 12.4406 4.64656C12.762 5.38944 12.9263 6.1908 12.9231 7.00026V12.9234ZM11.7926 1.89842C10.3704 0.562006 8.51073 -0.108244 6.55423 0.0142559C3.04373 0.233006 0.232067 3.04467 0.0139004 6.55517C-0.10685 8.51109 0.562234 10.3719 1.89865 11.7935C2.55423 12.4889 3.34475 13.0432 4.22186 13.4227C5.09897 13.8021 6.04425 13.9986 6.9999 14.0003H13.4615C13.759 14.0003 13.9999 13.7593 13.9999 13.4624V7.00026C13.9981 6.04454 13.8015 5.09923 13.4219 4.22212C13.0424 3.34501 12.488 2.55453 11.7926 1.89901V1.89842ZM9.42307 8.88501H4.57673C4.43394 8.88501 4.29699 8.94173 4.19602 9.0427C4.09504 9.14368 4.03832 9.28063 4.03832 9.42342C4.03832 9.56622 4.09504 9.70317 4.19602 9.80414C4.29699 9.90511 4.43394 9.96184 4.57673 9.96184H9.42307C9.56586 9.96184 9.70281 9.90511 9.80379 9.80414C9.90476 9.70317 9.96148 9.56622 9.96148 9.42342C9.96148 9.28063 9.90476 9.14368 9.80379 9.0427C9.70281 8.94173 9.56586 8.88501 9.42307 8.88501ZM4.57673 5.11609H9.42307C9.56594 5.11609 9.70296 5.05933 9.80399 4.9583C9.90502 4.85728 9.96177 4.72025 9.96177 4.57738C9.96177 4.43451 9.90502 4.29748 9.80399 4.19646C9.70296 4.09543 9.56594 4.03867 9.42307 4.03867H4.57673C4.43386 4.03867 4.29684 4.09543 4.19581 4.19646C4.09478 4.29748 4.03803 4.43451 4.03803 4.57738C4.03803 4.72025 4.09478 4.85728 4.19581 4.9583C4.29684 5.05933 4.43386 5.11609 4.57673 5.11609ZM2.96148 6.46242C2.82183 6.46702 2.68943 6.52573 2.59227 6.62615C2.49511 6.72656 2.44079 6.86082 2.44079 7.00055C2.44079 7.14028 2.49511 7.27453 2.59227 7.37495C2.68943 7.47536 2.82183 7.53407 2.96148 7.53867H11.0383C11.1811 7.53867 11.3181 7.48195 11.419 7.38097C11.52 7.28 11.5767 7.14305 11.5767 7.00026C11.5767 6.85746 11.52 6.72051 11.419 6.61954C11.3181 6.51857 11.1811 6.46184 11.0383 6.46184H2.96148V6.46242Z" fill="white"/>
</svg>
