<svg width="12" height="13" viewBox="0 0 12 13" fill="none" xmlns="http://www.w3.org/2000/svg">
<path d="M9.54299 6.689C9.20394 7.34869 8.69893 7.90871 8.07769 8.31393C7.45644 8.71915 6.74038 8.9556 5.99999 9C5.2596 8.9556 4.54354 8.71915 3.92229 8.31393C3.30105 7.90871 2.79604 7.34869 2.45699 6.689C1.27867 7.5459 0.453984 8.80373 0.137989 10.226C0.11702 10.323 0.125414 10.4241 0.162101 10.5164C0.198787 10.6086 0.262106 10.6879 0.343989 10.744C2.00842 11.8877 3.98048 12.5 5.99999 12.5C8.0195 12.5 9.99156 11.8877 11.656 10.744C11.7379 10.6879 11.8012 10.6086 11.8379 10.5164C11.8746 10.4241 11.883 10.323 11.862 10.226C11.546 8.80373 10.7213 7.5459 9.54299 6.689Z" fill="white"/>
<path d="M5.99999 0.5C5.20434 0.5 4.44128 0.81607 3.87867 1.37868C3.31606 1.94129 2.99999 2.70435 2.99999 3.5C2.99999 5.111 4.25999 7.5 5.99999 7.5C7.73999 7.5 8.99999 5.111 8.99999 3.5C8.99999 2.70435 8.68392 1.94129 8.12131 1.37868C7.5587 0.81607 6.79564 0.5 5.99999 0.5Z" fill="white"/>
</svg>
