<?xml version="1.0" standalone="no"?>
<!DOCTYPE svg PUBLIC "-//W3C//DTD SVG 20010904//EN"
 "http://www.w3.org/TR/2001/REC-SVG-20010904/DTD/svg10.dtd">
<svg version="1.0" xmlns="http://www.w3.org/2000/svg"
 width="1794.000000pt" height="1794.000000pt" viewBox="0 0 1794.000000 1794.000000"
 preserveAspectRatio="xMidYMid meet">
<metadata>
Created by potrace 1.11, written by Peter Selinger 2001-2013
</metadata>
<g transform="translate(0.000000,1794.000000) scale(0.100000,-0.100000)"
fill="#000000" stroke="none">
<path d="M10500 16726 c-3773 -631 -5164 -866 -6105 -1032 -629 -111 -667
-121 -790 -208 -73 -53 -116 -103 -149 -178 l-25 -53 21 -6260 c16 -4809 24
-6262 33 -6270 6 -5 22 -37 34 -70 92 -249 313 -441 583 -507 48 -12 86 -24
83 -27 -2 -4 1642 -294 3653 -644 l3657 -637 170 0 c243 1 555 17 681 35 291
42 747 201 1045 364 306 166 592 392 814 641 698 782 1031 1858 984 3174 -34
967 -222 1616 -617 2126 -83 107 -289 319 -407 418 -49 42 -143 115 -208 164
l-117 87 -1 393 0 393 79 90 c498 568 802 1143 902 1705 28 158 38 505 20 703
-40 441 -157 851 -356 1250 -153 305 -355 597 -569 826 l-75 79 0 1830 0 1830
-95 58 c-52 32 -95 61 -95 65 0 3 29 14 65 24 36 9 65 21 65 26 0 48 -99 100
-200 105 -51 3 -725 -106 -3080 -500z m3196 288 c49 -30 93 -59 98 -64 13 -13
-67 -59 -334 -193 -831 -416 -1931 -770 -3180 -1026 -1394 -284 -3112 -451
-4662 -451 -199 0 -308 -4 -308 -10 0 -5 4 -10 9 -10 13 0 2053 -215 2797
-295 2087 -224 3488 -383 3784 -431 130 -20 392 -88 525 -135 224 -80 458
-214 675 -386 100 -80 429 -404 450 -444 10 -18 3 -15 -36 17 -222 182 -538
378 -812 504 -495 227 -980 341 -1562 365 -147 6 -5333 497 -5810 550 -976
109 -1468 251 -1327 383 19 18 98 33 547 107 3218 528 6721 1125 8067 1375
436 81 977 190 989 199 1 1 42 -24 90 -55z m124 -1894 c0 -990 -3 -1800 -7
-1800 -8 0 -167 152 -172 165 -10 26 -159 192 -276 310 -297 297 -625 513
-945 623 -167 57 -414 118 -575 141 -490 71 -2696 316 -5505 611 -421 44 -772
82 -780 83 -8 2 122 7 290 11 1895 44 3340 203 4790 527 1205 269 2358 673
3075 1078 50 28 93 51 98 51 4 0 7 -810 7 -1800z m-4790 -2544 c2937 -351
3646 -438 3691 -455 101 -38 184 -130 209 -231 14 -58 -10 -377 -33 -432 -21
-51 -58 -72 -121 -70 -28 1 -1729 215 -3779 476 -3332 425 -3734 478 -3781
499 -112 51 -177 151 -184 283 -6 104 14 166 73 232 64 71 180 126 275 131 8
0 1651 -195 3650 -433z m-118 -3450 c3389 -405 3642 -436 3694 -460 68 -31
109 -65 150 -122 52 -73 57 -109 45 -300 -13 -194 -22 -237 -61 -276 -24 -23
-37 -28 -80 -28 -28 0 -1732 214 -3787 475 -2836 361 -3747 480 -3779 495 -62
27 -129 94 -161 159 -25 49 -28 68 -28 151 0 86 3 100 29 148 34 61 86 111
148 143 45 24 126 47 168 48 14 1 1662 -194 3662 -433z m4908 -891 c0 -201 -3
-365 -6 -365 -8 0 -444 292 -444 297 0 8 434 432 443 433 4 0 7 -164 7 -365z
m-5052 -2694 c1984 -237 3636 -437 3672 -446 110 -27 200 -99 243 -194 24 -52
25 -105 9 -318 -12 -158 -33 -210 -93 -230 -31 -10 -538 53 -3800 468 -2070
263 -3777 484 -3794 491 -86 34 -158 109 -192 200 -24 66 -21 182 6 245 26 60
111 145 168 170 35 15 131 40 161 42 8 1 1637 -192 3620 -428z"/>
</g>
</svg>
