<svg version="1" xmlns="http://www.w3.org/2000/svg" width="2666.667" height="2666.667" viewBox="0 0 2000.000000 2000.000000"><path d="M1095.6 268.6c-2.2.8-4.9 1.6-6 1.9-1.2.2-6.8 1.7-12.6 3.4-5.8 1.6-19.5 5.4-30.5 8.5-11 3-33.7 9.4-50.5 14.1-16.8 4.7-31.3 8.8-32.2 9-2.8.6-17.1 4.6-20.3 5.6-1.6.5-13.6 3.9-26.5 7.4-12.9 3.6-25.7 7.2-28.5 8-2.7.8-5.9 1.7-7 1.9-1.1.3-12.6 3.5-25.5 7.1-12.9 3.7-26 7.3-29 8.1-3 .8-10.9 3-17.5 4.9-6.6 1.9-16.3 4.6-21.5 6-10.9 3-27.8 7.8-46.5 13-7.1 2-13.7 3.8-14.5 4-.8.2-20.2 5.6-43 12s-42.4 11.8-43.4 12.1c-1.1.2-4 1-6.5 1.8s-12.2 3.6-21.6 6.1c-53.9 14.8-63.8 17.6-64.7 18.4-.3.3-.9 12.3-1.2 26.6-.4 14.3-.9 35.2-1.1 46.5-1.2 50.3-1.6 64.8-2 84-.6 29.3-1.4 64.4-2 87-.3 10.7-.7 29.8-1 42.5-.3 12.6-.7 31.5-1 42-.4 18.1-.9 39.8-2 87-.3 11.5-.7 30.4-1 42-.3 11.5-.7 30.9-1 43-.7 31.6-1.4 59.7-2 85.5-.3 12.4-.7 32.2-1 44-.3 11.8-.7 30.7-1 42-.3 11.3-.7 30.6-1 43-.3 12.4-.7 31-1 41.5-.2 10.4-.7 30.5-1 44.5-.3 14-.8 33.4-1 43-.2 9.6-.7 28.1-1 41-.3 12.9-.7 32.7-1 44-.6 24.8-1.4 57-2 86-.3 11.8-.7 30.9-1 42.5-.3 11.5-.7 31.3-1 44-.3 12.6-.7 32-1 43-.3 11-.7 29.7-1 41.5-.3 11.8-.7 31.2-1 43-.3 11.8-.7 31.3-1.1 43.3l-.5 21.9 5.7 7.6c25 33.4 68.8 59.4 111.4 66.1 3.6.6 8.1 1.3 10 1.7 1.9.3 11.4.8 21 1 13.9.4 17.6.7 17.8 1.8.2.8 2 2.2 4 3.2 4.2 2.1 23.3 2.8 33.7 1.3 3.3-.4 8.2-1.1 10.9-1.4 2.7-.4 5.6-.8 6.5-1 3.9-.7 19.8-3.7 22.1-4.1 10.1-1.9 61.7-15.4 77.5-20.4 3.3-1 9.4-2.8 13.5-4 16.7-5 71.3-22.8 91.5-30 38-13.5 55.1-19.6 71-25.5 9.9-3.7 19.4-7.1 21-7.7 1.7-.5 4.1-1.4 5.5-2 3.2-1.3 2.2-1 29.5-11.3 29.5-11.2 83-32.1 120-46.9 32.2-12.9 35.1-14.5 59.9-33.6 17.1-13.2 55.5-50.9 66.7-65.5 1.3-1.7 2.6-3.2 2.9-3.5 1-.9 16.4-20.6 21.2-27.2 14.5-20 31.5-47.5 43-69.8 5.7-11.1 19.8-41.4 19.8-42.5 0-.4.7-2.1 1.5-3.8 4.4-9.8 20.6-56.1 21.9-63 .2-1.2 1.4-5.8 2.6-10.2 1.2-4.4 2.3-8.9 2.6-9.9.2-1 .8-3.3 1.3-5 .6-1.7 1.2-4.8 1.6-7 .3-2.1.7-4.2 1-4.6.3-.4.7-2.5 1-4.6.3-2.2.8-4.5 1.1-5.3.2-.8.7-3 1-5 .3-2 1-5.2 1.5-7.2 2.8-10.8 3-62.2.4-76-.2-1.2-.6-4-.9-6.3-.7-6.2-4.1-25.7-5.2-30.6-.3-1.4-.8-3.6-1-5-1.2-6.4-9.5-36-11.3-40.5-.5-1.1-2.5-6.5-4.6-12-12.8-35.1-34.7-72.5-61-104-8.3-10-29.5-32-37.1-38.5-14.2-12.2-17.3-14.8-19.3-16.2l-2.3-1.7 3.8-3.3c6.1-5.2 34.3-33.6 40.4-40.7 8.4-9.8 9-10.4 15.5-18.6 2.2-2.8 4.2-5.2 4.5-5.5 1.9-1.7 16.8-22.5 24-33.5 28.9-43.7 52-96.6 59.6-136.5.2-1.4.9-4.8 1.5-7.6 1.7-8.7 3.4-20.5 4.6-31.4 1.5-13.7.6-67-1.2-70-.1-.3-.6-3.6-1-7.3-.3-3.7-.8-7.6-1-8.6-.2-1-.6-3.6-.9-5.7-2.8-18.1-10-46.7-16.2-63.7-6.2-17.5-17.3-41.5-24.2-52.7-1.2-1.9-2.7-4.6-3.4-6-1.4-2.7-12.1-18.9-16.6-24.9-14.5-19.6-36.8-43.6-56.7-61.1-3.3-2.9-7.3-6.4-9-7.9-1.6-1.5-7.7-6.5-13.5-11.1-5.8-4.7-10.7-8.7-11-9-.3-.3-4.3-3.4-9-7-4.7-3.5-12.8-9.9-18.2-14.2l-9.6-7.8-31.4 10.6c-49.7 16.7-46.2 15.7-54.8 15-19.9-1.6-33.4-6.8-42.6-16.2-6.3-6.4-9.2-12.3-10.8-21.7l-1.3-7.2 3.9-1.4c2.2-.7 3.8-1.6 3.6-2.1-.5-1.3-25.3-22-26.3-21.9-.5 0-2.8.7-4.9 1.5z"/></svg>